<svg id="Layer_1" data-name="Layer 1" xmlns="http://www.w3.org/2000/svg" viewBox="0 0 305.28 305.28"><defs><style>.cls-1{fill:#00b9ff;}</style></defs><path class="cls-1" d="M411.24,362.76A123.83,123.83,0,0,0,302.94,251.5V222.92H277.33v28.15A123.81,123.81,0,0,0,164.76,362.76h-29.4v25.6H165A123.82,123.82,0,0,0,277.33,497.71V528.2h25.61V497.28A123.86,123.86,0,0,0,411,388.36h29.64v-25.6Zm-26.06,25.6a98.23,98.23,0,0,1-82.24,83.07A99.59,99.59,0,0,1,288,472.56a98.19,98.19,0,1,1,0-196.38,99.59,99.59,0,0,1,14.94,1.13,98.17,98.17,0,0,1,83.23,97,99.47,99.47,0,0,1-1,14Z" transform="translate(-135.36 -222.92)"/><path class="cls-1" d="M378.64,374.39a92.36,92.36,0,0,1-1.07,14,90.73,90.73,0,1,1,1.07-14.15v.16Z" transform="translate(-135.36 -222.92)"/></svg>