<svg xmlns="http://www.w3.org/2000/svg" viewBox="0 0 399.7 23.01"><defs><style>.cls-1{fill:#fff;}</style></defs><g id="Layer_2" data-name="Layer 2"><g id="icons"><g id="days"><path class="cls-1" d="M0,.69A.31.31,0,0,1,.33.36H2.46A.5.5,0,0,1,3,.69l6.66,15h.09l6.53-15a.5.5,0,0,1,.52-.33h2.13a.31.31,0,0,1,.33.33V22.32a.31.31,0,0,1-.33.33H16.85a.31.31,0,0,1-.33-.33V6.82h-.1L10.88,19.08a.56.56,0,0,1-.59.39H9a.57.57,0,0,1-.62-.39L2.82,6.82h-.1v15.5a.31.31,0,0,1-.33.33H.33A.31.31,0,0,1,0,22.32Z"/><path class="cls-1" d="M24.65,19a12.81,12.81,0,0,1-.53-4.16,12.81,12.81,0,0,1,.53-4.16,5.51,5.51,0,0,1,5.57-3.93,5.51,5.51,0,0,1,5.57,3.93,12.81,12.81,0,0,1,.53,4.16A12.81,12.81,0,0,1,35.79,19,5.52,5.52,0,0,1,30.22,23,5.52,5.52,0,0,1,24.65,19Zm10.22-.33a11.85,11.85,0,0,0,.46-3.83,11.9,11.9,0,0,0-.46-3.83A4.63,4.63,0,0,0,30.22,7.7a4.63,4.63,0,0,0-4.65,3.35,11.9,11.9,0,0,0-.46,3.83,11.85,11.85,0,0,0,.46,3.83,4.61,4.61,0,0,0,4.65,3.35A4.61,4.61,0,0,0,34.87,18.71Z"/><path class="cls-1" d="M70.7,22.65a.31.31,0,0,1-.33-.33v-19a.18.18,0,0,0-.2-.2H64.08a.31.31,0,0,1-.33-.33V.69a.31.31,0,0,1,.33-.33h15.5a.31.31,0,0,1,.33.33V2.75a.31.31,0,0,1-.33.33h-6.1c-.13,0-.19.07-.19.2v19a.31.31,0,0,1-.33.33Z"/><path class="cls-1" d="M94.1,22.65a.31.31,0,0,1-.33-.33v-2.2h0A4.89,4.89,0,0,1,89,23c-3.51,0-5.41-2-5.41-6V7.44a.31.31,0,0,1,.33-.33h.33a.31.31,0,0,1,.32.33v9.31c0,3.67,1.45,5.31,4.49,5.31a4.54,4.54,0,0,0,4.69-4.82V7.44a.31.31,0,0,1,.33-.33h.33a.31.31,0,0,1,.32.33V22.32a.31.31,0,0,1-.32.33Z"/><path class="cls-1" d="M141.23,22.65c-.19,0-.29-.13-.36-.33L136.12,5.7h-.07l-4.72,16.62a.4.4,0,0,1-.39.33h-1.8a.35.35,0,0,1-.36-.33L123.4.69c-.06-.2,0-.33.26-.33h2.17a.34.34,0,0,1,.39.33l4,16.55h.06L134.87.69a.42.42,0,0,1,.4-.33h1.67c.23,0,.33.13.39.33l4.72,16.55h.07L146,.69a.4.4,0,0,1,.43-.33h2.13c.23,0,.3.13.26.33l-5.37,21.63a.39.39,0,0,1-.4.33Z"/><path class="cls-1" d="M152.18,19a12.69,12.69,0,0,1-.46-4.13,12.65,12.65,0,0,1,.46-4.13,5.82,5.82,0,0,1,11,0,11.47,11.47,0,0,1,.46,3.87.32.32,0,0,1-.36.32H152.9a.2.2,0,0,0-.2.23,11.27,11.27,0,0,0,.4,3.51,4.63,4.63,0,0,0,4.78,3.41,5.58,5.58,0,0,0,4.69-2.26.3.3,0,0,1,.46-.07l.2.17a.29.29,0,0,1,0,.45A6.35,6.35,0,0,1,157.88,23,5.47,5.47,0,0,1,152.18,19Zm10.29-5a.18.18,0,0,0,.2-.2,9,9,0,0,0-.36-2.72,4.85,4.85,0,0,0-9.25,0,9.38,9.38,0,0,0-.36,2.72.18.18,0,0,0,.2.2Z"/><path class="cls-1" d="M198,22.65a.31.31,0,0,1-.32-.33v-19a.18.18,0,0,0-.2-.2h-6.1a.31.31,0,0,1-.32-.33V.69a.31.31,0,0,1,.32-.33h15.51a.31.31,0,0,1,.32.33V2.75a.31.31,0,0,1-.32.33h-6.1a.18.18,0,0,0-.2.2v19a.31.31,0,0,1-.33.33Z"/><path class="cls-1" d="M221.86,22.65a.31.31,0,0,1-.33-.33V13c0-3.67-1.5-5.31-4.55-5.31a4.58,4.58,0,0,0-4.76,4.82v9.8a.31.31,0,0,1-.32.33h-.33a.31.31,0,0,1-.33-.33V.69a.31.31,0,0,1,.33-.33h.33a.31.31,0,0,1,.32.33v9h0A4.92,4.92,0,0,1,217,6.79c3.51,0,5.48,2,5.48,6v9.54a.31.31,0,0,1-.33.33Z"/><path class="cls-1" d="M252.93.69a.31.31,0,0,1,.33-.33h13.41a.31.31,0,0,1,.32.33V2.75a.31.31,0,0,1-.32.33H256.05a.18.18,0,0,0-.2.2v6.78a.18.18,0,0,0,.2.2h9a.31.31,0,0,1,.33.33v2.06a.31.31,0,0,1-.33.33h-9a.18.18,0,0,0-.2.2v9.14a.31.31,0,0,1-.33.33h-2.26a.31.31,0,0,1-.33-.33Z"/><path class="cls-1" d="M272,22.65a.31.31,0,0,1-.33-.33V7.44a.31.31,0,0,1,.33-.33h.33a.31.31,0,0,1,.32.33V9.77h0a4.07,4.07,0,0,1,4.23-3,5.29,5.29,0,0,1,3.08,1,.3.3,0,0,1,.06.42l-.2.26a.35.35,0,0,1-.49.07,4.8,4.8,0,0,0-2.59-.79c-3,0-4.13,2.85-4.13,5.94v8.68a.31.31,0,0,1-.32.33Z"/><path class="cls-1" d="M307.24,20.22a.36.36,0,0,1,0-.49l1.44-1.7a.29.29,0,0,1,.46,0,10.25,10.25,0,0,0,6.23,2.3c3.08,0,4.91-1.54,4.91-3.8,0-1.9-1.08-3.18-4.65-3.64l-1.11-.17c-4.33-.58-6.56-2.65-6.56-6.16,0-4,2.85-6.52,7.28-6.52A11.76,11.76,0,0,1,322,2.07a.29.29,0,0,1,.07.45l-1.12,1.81a.32.32,0,0,1-.46.06,9.87,9.87,0,0,0-5.37-1.67c-2.72,0-4.23,1.48-4.23,3.61,0,1.86,1.25,3.11,4.69,3.57l1.08.16c4.36.59,6.55,2.59,6.55,6.23,0,3.9-2.75,6.72-8.12,6.72A12.25,12.25,0,0,1,307.24,20.22Z"/><path class="cls-1" d="M337.89,22.65a.31.31,0,0,1-.33-.33V20.45h0c-.56,1.41-2.3,2.53-5,2.53-3.24,0-5.21-1.61-5.21-4.53s2-4.45,5.77-4.45h4.29a.18.18,0,0,0,.2-.2v-2c0-3-.92-4.1-4.33-4.1-2.09,0-3.24.46-4.06,1.25a.33.33,0,0,1-.46.06l-.23-.19a.28.28,0,0,1,0-.46c.95-1,2.52-1.57,4.78-1.57,3.74,0,5.31,1.17,5.31,5V22.32a.31.31,0,0,1-.32.33Zm-.33-4.59V15.11a.18.18,0,0,0-.2-.2h-4.22c-3.41,0-4.85,1.18-4.85,3.54s1.57,3.61,4.35,3.61S337.56,20.39,337.56,18.06Z"/><path class="cls-1" d="M367.88,20.22a.35.35,0,0,1,0-.49l1.44-1.7a.29.29,0,0,1,.46,0,10.24,10.24,0,0,0,6.22,2.3c3.08,0,4.92-1.54,4.92-3.8,0-1.9-1.08-3.18-4.65-3.64l-1.12-.17c-4.33-.58-6.55-2.65-6.55-6.16,0-4,2.85-6.52,7.27-6.52a11.79,11.79,0,0,1,6.79,2.07.29.29,0,0,1,.06.45l-1.11,1.81a.32.32,0,0,1-.46.06,9.88,9.88,0,0,0-5.38-1.67c-2.72,0-4.22,1.48-4.22,3.61,0,1.86,1.24,3.11,4.68,3.57l1.08.16c4.36.59,6.56,2.59,6.56,6.23,0,3.9-2.75,6.72-8.13,6.72A12.22,12.22,0,0,1,367.88,20.22Z"/><path class="cls-1" d="M399.05,22.65a.31.31,0,0,1-.33-.33v-2.2h0A4.89,4.89,0,0,1,394,23c-3.51,0-5.41-2-5.41-6V7.44a.31.31,0,0,1,.33-.33h.33a.31.31,0,0,1,.32.33v9.31c0,3.67,1.44,5.31,4.49,5.31a4.54,4.54,0,0,0,4.69-4.82V7.44a.31.31,0,0,1,.33-.33h.33a.31.31,0,0,1,.32.33V22.32a.31.31,0,0,1-.32.33Z"/></g></g></g></svg>