<svg xmlns="http://www.w3.org/2000/svg" viewBox="0 0 42.93 21.94"><defs><style>.cls-1{fill:#fff;}</style></defs><g id="Layer_2" data-name="Layer 2"><g id="icons"><g id="fog"><path class="cls-1" d="M34.87,2.34H8.06A1.17,1.17,0,0,1,8.06,0H34.87a1.17,1.17,0,1,1,0,2.34Z"/><path class="cls-1" d="M41.5,9.13H1.43a1.43,1.43,0,0,1,0-2.86H41.5a1.43,1.43,0,0,1,0,2.86Z"/><path class="cls-1" d="M39.65,15.6H3.28a1.37,1.37,0,0,1,0-2.73H39.65a1.37,1.37,0,0,1,0,2.73Z"/><path class="cls-1" d="M34.87,21.94H8.06a1.17,1.17,0,1,1,0-2.34H34.87a1.17,1.17,0,1,1,0,2.34Z"/></g></g></g></svg>