<svg xmlns="http://www.w3.org/2000/svg" viewBox="0 0 151.53 71.08"><defs><style>.cls-1{fill:#fff;}</style></defs><g id="Layer_2" data-name="Layer 2"><g id="icons"><g id="label"><path class="cls-1" d="M19.85,43.77a.43.43,0,0,1-.46-.35L15.64,30.1h-.07L11.78,43.42a.42.42,0,0,1-.45.35H7a.43.43,0,0,1-.46-.35L0,20.28c0-.21,0-.35.28-.35H6a.4.4,0,0,1,.45.35L9.58,34.16h.07l3.71-13.88a.43.43,0,0,1,.46-.35h3.61a.42.42,0,0,1,.45.35L21.7,34.16h.07l3-13.88a.4.4,0,0,1,.42-.35h5.75a.24.24,0,0,1,.25.35L24.72,43.42a.44.44,0,0,1-.49.35Z"/><path class="cls-1" d="M32.71,20.28a.33.33,0,0,1,.35-.35h15.6a.33.33,0,0,1,.35.35V24.8a.33.33,0,0,1-.35.36H39.09a.19.19,0,0,0-.21.21V29a.19.19,0,0,0,.21.21h7.85a.33.33,0,0,1,.35.35V34a.33.33,0,0,1-.35.35H39.09a.19.19,0,0,0-.21.22v3.81c0,.15.07.22.21.22h9.57a.33.33,0,0,1,.35.35v4.52a.33.33,0,0,1-.35.35H33.06a.33.33,0,0,1-.35-.35Z"/><path class="cls-1" d="M58.19,20.28a.45.45,0,0,1,.46-.35h5.71a.44.44,0,0,1,.45.35l8.07,23.14a.24.24,0,0,1-.25.35H66.85a.45.45,0,0,1-.46-.35l-1.12-3.68H57.52L56.4,43.42a.45.45,0,0,1-.45.35H50.2a.24.24,0,0,1-.25-.35Zm5.54,14.34-2.21-7.43h-.11L59.1,34.62Z"/><path class="cls-1" d="M77.29,43.77h-.1c-.07,0-.11,0-.18-.11a.19.19,0,0,1-.07-.14V25.61a.23.23,0,0,0-.17-.21h-6a.17.17,0,0,1-.14-.07l0,0a0,0,0,0,0,0,0,.51.51,0,0,1,0-.21V20.28a.35.35,0,0,1,.24-.35H89.18a.32.32,0,0,1,.24.11.1.1,0,0,1,0,.07.27.27,0,0,1,.07.17v4.77a.39.39,0,0,1-.11.28.22.22,0,0,1-.17.07H83.32c-.07,0-.1,0-.14,0s0,0-.07.07v18c0,.11-.07.14-.17.21a.26.26,0,0,1-.18,0Z"/><path class="cls-1" d="M91.17,20.28a.33.33,0,0,1,.35-.35H97a.33.33,0,0,1,.35.35v8.45a.19.19,0,0,0,.21.21H104a.19.19,0,0,0,.21-.21V20.28a.33.33,0,0,1,.35-.35h5.46a.33.33,0,0,1,.36.35V43.42a.33.33,0,0,1-.36.35H104.6a.33.33,0,0,1-.35-.35v-8.8a.19.19,0,0,0-.21-.21H97.55a.19.19,0,0,0-.21.21v8.8a.33.33,0,0,1-.35.35H91.52a.33.33,0,0,1-.35-.35Z"/><path class="cls-1" d="M113.57,20.28a.33.33,0,0,1,.35-.35h15.6a.33.33,0,0,1,.35.35V24.8a.33.33,0,0,1-.35.36H120a.19.19,0,0,0-.21.21V29a.19.19,0,0,0,.21.21h7.85a.33.33,0,0,1,.35.35V34a.33.33,0,0,1-.35.35H120a.19.19,0,0,0-.21.22v3.81c0,.15.07.22.21.22h9.57a.33.33,0,0,1,.35.35v4.52a.33.33,0,0,1-.35.35h-15.6a.33.33,0,0,1-.35-.35Z"/><path class="cls-1" d="M145.19,43.77a.48.48,0,0,1-.53-.35l-3.61-8.13h-2.28c-.14,0-.21.06-.21.2v7.93a.33.33,0,0,1-.35.35h-5.47a.33.33,0,0,1-.35-.35V20.28a.33.33,0,0,1,.35-.35h9.71c5.47,0,8.59,3.19,8.59,7.68a7.1,7.1,0,0,1-3.93,6.66l4.38,9.08a.27.27,0,0,1-.24.42Zm-.32-16.09c0-1.54-1.05-2.52-2.8-2.52h-3.3a.19.19,0,0,0-.21.21V30a.19.19,0,0,0,.21.21h3.3C143.82,30.2,144.87,29.22,144.87,27.68Z"/><path class="cls-1" d="M1.43,47.24a.33.33,0,0,1,.35-.35h.38a.33.33,0,0,1,.35.35V70.38a.33.33,0,0,1-.35.35H1.78a.33.33,0,0,1-.35-.35Z"/><path class="cls-1" d="M10.64,58.81c0-4.34.28-6.13.63-7.18,1.13-3.44,3.58-5.08,7.19-5.08a7.1,7.1,0,0,1,6.8,4.06c.11.18.11.35-.07.46l-.35.17a.32.32,0,0,1-.46-.14,6.27,6.27,0,0,0-5.92-3.54c-3.19,0-5.15,1.4-6.14,4.35-.31.94-.59,2.66-.59,6.9s.28,6,.59,6.91c1,2.94,2.95,4.34,6.14,4.34a6.26,6.26,0,0,0,5.92-3.54.33.33,0,0,1,.46-.14l.35.18a.29.29,0,0,1,.07.45,7.11,7.11,0,0,1-6.8,4.07c-3.61,0-6.06-1.65-7.19-5.08C10.92,65,10.64,63.16,10.64,58.81Z"/><path class="cls-1" d="M32.66,65.89c-.36-1-.7-2.73-.7-7.08s.34-6,.7-7.08c1.12-3.43,3.64-5.18,7.39-5.18s6.28,1.75,7.4,5.18c.35,1.06.7,2.74.7,7.08s-.35,6-.7,7.08c-1.12,3.44-3.65,5.19-7.4,5.19S33.78,69.33,32.66,65.89Zm13.74-.28c.31-1,.66-2.56.66-6.8S46.71,53,46.4,52a6.12,6.12,0,0,0-6.35-4.45A6.11,6.11,0,0,0,33.71,52c-.32,1-.67,2.56-.67,6.8s.35,5.85.67,6.8a6.1,6.1,0,0,0,6.34,4.45A6.11,6.11,0,0,0,46.4,65.61Z"/><path class="cls-1" d="M56.28,47.24a.33.33,0,0,1,.35-.35h.31a.6.6,0,0,1,.6.35L70.65,68.38h.1V47.24a.34.34,0,0,1,.36-.35h.38a.33.33,0,0,1,.35.35V70.38a.33.33,0,0,1-.35.35h-.31a.59.59,0,0,1-.6-.35L57.47,49.24h-.1V70.38a.34.34,0,0,1-.36.35h-.38a.33.33,0,0,1-.35-.35Z"/><path class="cls-1" d="M91.09,68.49a.33.33,0,0,1,0-.49l.28-.32a.32.32,0,0,1,.49,0,11.66,11.66,0,0,0,7,2.42c4.24,0,6.83-2.17,6.83-5.57,0-2.66-1.37-4.62-6.2-5.26l-1.06-.14c-4.73-.63-6.72-2.84-6.72-6.06,0-4.07,2.83-6.48,7.22-6.48a11.87,11.87,0,0,1,6.41,1.82.31.31,0,0,1,.07.49l-.25.31a.32.32,0,0,1-.48.07,11.2,11.2,0,0,0-5.82-1.68c-3.86,0-6.07,2.17-6.07,5.36,0,2.81,1.65,4.63,6.24,5.23l1,.14c4.73.63,6.7,2.77,6.7,6.1,0,4-2.77,6.69-8.13,6.69A12.55,12.55,0,0,1,91.09,68.49Z"/><path class="cls-1" d="M115.09,47.24a.33.33,0,0,1,.35-.35h13.11a.33.33,0,0,1,.35.35v.32a.33.33,0,0,1-.35.35H116.39a.19.19,0,0,0-.21.21V57.9a.19.19,0,0,0,.21.21H126.9a.33.33,0,0,1,.35.35v.32a.33.33,0,0,1-.35.35H116.39a.19.19,0,0,0-.21.21V69.5a.19.19,0,0,0,.21.21h12.16a.33.33,0,0,1,.35.35v.32a.33.33,0,0,1-.35.35H115.44a.33.33,0,0,1-.35-.35Z"/><path class="cls-1" d="M141.69,70.73a.33.33,0,0,1-.35-.35V48.12a.19.19,0,0,0-.21-.21H134a.33.33,0,0,1-.35-.35v-.32a.33.33,0,0,1,.35-.35h15.74a.33.33,0,0,1,.35.35v.32a.33.33,0,0,1-.35.35h-7.12a.19.19,0,0,0-.21.21V70.38a.33.33,0,0,1-.35.35Z"/><path class="cls-1" d="M5.23,14.88c-.13,0-.19-.09-.24-.22L0,.56C0,.32,0,.22.19.22H.38C.57.22.64.26.7.43L5.38,13.84h0L10,.43c.07-.17.13-.21.33-.21h.21c.15,0,.24.1.15.34L5.75,14.66c0,.13-.11.22-.24.22Z"/><path class="cls-1" d="M29.19.43A.19.19,0,0,1,29.4.22h8.06a.2.2,0,0,1,.22.21V.62a.2.2,0,0,1-.22.22H30a.12.12,0,0,0-.13.13V7a.12.12,0,0,0,.13.13h6.47a.21.21,0,0,1,.22.22v.19a.21.21,0,0,1-.22.22H30a.12.12,0,0,0-.13.13v6.25a.12.12,0,0,0,.13.13h7.48a.21.21,0,0,1,.22.22v.19a.21.21,0,0,1-.22.22H29.4a.2.2,0,0,1-.21-.22Z"/><path class="cls-1" d="M56.17,7.54a14.62,14.62,0,0,1,.39-4.41A4.23,4.23,0,0,1,61,0a4.37,4.37,0,0,1,4.18,2.5c.07.11.07.22,0,.28l-.22.11a.2.2,0,0,1-.28-.09A3.86,3.86,0,0,0,61,.62,3.58,3.58,0,0,0,57.21,3.3a14.21,14.21,0,0,0-.37,4.24,14.25,14.25,0,0,0,.37,4.25A3.58,3.58,0,0,0,61,14.47a3.86,3.86,0,0,0,3.64-2.18.2.2,0,0,1,.28-.09l.22.11c.11.06.11.17,0,.28A4.37,4.37,0,0,1,61,15.09,4.23,4.23,0,0,1,56.56,12,14.66,14.66,0,0,1,56.17,7.54Z"/><path class="cls-1" d="M88.63,14.88a.2.2,0,0,1-.21-.22V1a.12.12,0,0,0-.13-.13H83.91a.2.2,0,0,1-.22-.22V.43a.2.2,0,0,1,.22-.21h9.68a.2.2,0,0,1,.22.21V.62a.2.2,0,0,1-.22.22H89.21c-.08,0-.12,0-.12.13V14.66a.21.21,0,0,1-.22.22Z"/><path class="cls-1" d="M112.72,11.9a13.93,13.93,0,0,1-.43-4.36,13.9,13.9,0,0,1,.43-4.35,4.84,4.84,0,0,1,9.1,0,13.57,13.57,0,0,1,.43,4.35,13.61,13.61,0,0,1-.43,4.36,4.84,4.84,0,0,1-9.1,0Zm8.46-.17a13.48,13.48,0,0,0,.41-4.19,13.39,13.39,0,0,0-.41-4.18,4.15,4.15,0,0,0-7.81,0A13.39,13.39,0,0,0,113,7.54a13.48,13.48,0,0,0,.41,4.19,4.15,4.15,0,0,0,7.81,0Z"/><path class="cls-1" d="M149.6,14.88c-.12,0-.19-.05-.25-.2L146.13,8a5.52,5.52,0,0,1-.58,0h-4a.12.12,0,0,0-.13.13v6.51a.2.2,0,0,1-.21.22H141a.21.21,0,0,1-.22-.22V.43A.2.2,0,0,1,141,.22h4.59c2.78,0,4.38,1.42,4.38,3.9a3.57,3.57,0,0,1-3.13,3.79l3.28,6.75c.06.11,0,.22-.11.22Zm-.34-10.76C149.26,2,148,.84,145.55.84h-4a.12.12,0,0,0-.13.13v6.3c0,.08.05.12.13.12h4C148,7.39,149.26,6.25,149.26,4.12Z"/></g></g></g></svg>