<svg xmlns="http://www.w3.org/2000/svg" viewBox="0 0 51.79 41.55"><defs><style>.cls-1{fill:#fff;}</style></defs><g id="Layer_2" data-name="Layer 2"><g id="icons"><g id="night_snow" data-name="night snow"><path class="cls-1" d="M29,27.94a8.45,8.45,0,1,0-1.9-16.67A9.47,9.47,0,0,0,8.55,14c0,.2,0,.39,0,.58a6.54,6.54,0,0,0-1.78-.25,6.8,6.8,0,0,0,0,13.6Z"/><path class="cls-1" d="M16.11,35.2h-2.3l1.63-1.63a.92.92,0,0,0,0-1.3.94.94,0,0,0-1.3,0L12.51,33.9V31.6a.92.92,0,1,0-1.83,0v2.3L9.05,32.28a.92.92,0,1,0-1.3,1.29L9.38,35.2H7.08a.92.92,0,1,0,0,1.83h2.3L7.75,38.67A.92.92,0,0,0,9.05,40l1.63-1.63v2.31a.92.92,0,0,0,1.83,0V38.33L14.14,40a.92.92,0,0,0,1.3,0,.91.91,0,0,0,0-1.29L13.81,37h2.3a.92.92,0,1,0,0-1.83Z"/><path class="cls-1" d="M31.3,35.2H29l1.63-1.63a.92.92,0,0,0,0-1.3.94.94,0,0,0-1.3,0L27.7,33.9V31.6a.92.92,0,1,0-1.83,0v2.3l-1.63-1.62a.92.92,0,0,0-1.3,0,.91.91,0,0,0,0,1.29l1.63,1.63h-2.3a.92.92,0,1,0,0,1.83h2.3l-1.63,1.64a.91.91,0,0,0,0,1.29.92.92,0,0,0,1.3,0l1.63-1.63v2.31a.92.92,0,0,0,1.83,0V38.33L29.33,40a.92.92,0,0,0,1.3,0,.91.91,0,0,0,0-1.29L29,37h2.3a.92.92,0,1,0,0-1.83Z"/><path class="cls-1" d="M49,17.49A11.89,11.89,0,0,1,38.55,0a11.86,11.86,0,0,0-9,9.91,9.58,9.58,0,0,1,8.4,13,12,12,0,0,0,3.36.49,11.88,11.88,0,0,0,10.47-6.28A12,12,0,0,1,49,17.49Z"/></g></g></g></svg>