<svg xmlns="http://www.w3.org/2000/svg" viewBox="0 0 37.44 45.99"><defs><style>.cls-1{fill:#fff;}</style></defs><g id="Layer_2" data-name="Layer 2"><g id="icons"><g id="rain_with_flashing" data-name="rain with flashing"><path class="cls-1" d="M29,23.4a8.45,8.45,0,1,0-1.9-16.67A9.47,9.47,0,0,0,8.55,9.47c0,.19,0,.38,0,.57A7,7,0,0,0,6.8,9.8a6.8,6.8,0,0,0,0,13.6Z"/><path class="cls-1" d="M7.11,32.4c-1.52,1.2-1.1,3.69.37,5s4,1.31,4.95-.37c1.18-2,3.07-8.94,3.07-8.94S9,30.93,7.11,32.4Z"/><polygon class="cls-1" points="21.82 27.23 29.13 27.23 25.48 34.15 31.28 34.15 21.24 45.99 23.58 38.83 16.9 38.83 21.82 27.23"/></g></g></g></svg>