<svg xmlns="http://www.w3.org/2000/svg" viewBox="0 0 37.44 38.01"><defs><style>.cls-1{fill:#fff;}</style></defs><g id="Layer_2" data-name="Layer 2"><g id="icons"><g id="rain_with_sleet" data-name="rain with sleet"><path class="cls-1" d="M29,23.4a8.45,8.45,0,1,0-1.9-16.67A9.47,9.47,0,0,0,8.56,9.47c0,.19,0,.38,0,.57A7,7,0,0,0,6.8,9.8a6.8,6.8,0,0,0,0,13.6Z"/><path class="cls-1" d="M7.28,32.14c-1.52,1.2-1.09,3.68.38,5s4,1.31,4.95-.37c1.17-2,3.06-8.95,3.06-8.95S9.14,30.67,7.28,32.14Z"/><path class="cls-1" d="M31.11,32.89a4.39,4.39,0,1,1-4.39-4.38A4.39,4.39,0,0,1,31.11,32.89Z"/></g></g></g></svg>