<svg xmlns="http://www.w3.org/2000/svg" viewBox="0 0 37.44 41.12"><defs><style>.cls-1{fill:#fff;}</style></defs><g id="Layer_2" data-name="Layer 2"><g id="icons"><g id="raining"><path class="cls-1" d="M29,23.4a8.45,8.45,0,1,0-1.9-16.67A9.47,9.47,0,0,0,8.56,9.47c0,.19,0,.38,0,.57A6.89,6.89,0,0,0,6.8,9.8a6.8,6.8,0,0,0,0,13.6Z"/><path class="cls-1" d="M7.08,30.55a2,2,0,0,0,.23,3,2,2,0,0,0,3-.23,39,39,0,0,0,1.85-5.41A39.33,39.33,0,0,0,7.08,30.55Z"/><path class="cls-1" d="M13.34,30.55a2,2,0,0,0,.23,3,2,2,0,0,0,3-.23,39.34,39.34,0,0,0,1.86-5.41A38.68,38.68,0,0,0,13.34,30.55Z"/><path class="cls-1" d="M19.6,30.55a2.12,2.12,0,1,0,3.22,2.77,39.34,39.34,0,0,0,1.86-5.41A38.68,38.68,0,0,0,19.6,30.55Z"/><path class="cls-1" d="M25.86,30.55a2.12,2.12,0,1,0,3.22,2.77,39,39,0,0,0,1.85-5.41A38.72,38.72,0,0,0,25.86,30.55Z"/><path class="cls-1" d="M13.94,37.93a1.91,1.91,0,1,0,2.89,2.49,34.44,34.44,0,0,0,1.66-4.85A35.86,35.86,0,0,0,13.94,37.93Z"/><path class="cls-1" d="M19.55,37.93a1.91,1.91,0,1,0,2.89,2.49,34.44,34.44,0,0,0,1.66-4.85A35.86,35.86,0,0,0,19.55,37.93Z"/></g></g></g></svg>