<svg xmlns="http://www.w3.org/2000/svg" viewBox="0 0 47.23 48.44"><defs><style>.cls-1{fill:#fff;}</style></defs><g id="Layer_2" data-name="Layer 2"><g id="icons"><g id="sun_and_flashing" data-name="sun and flashing"><path class="cls-1" d="M29,0a1.41,1.41,0,0,0-1.4,1.41l0,3.78a1.41,1.41,0,0,0,2.81,0l0-3.78A1.39,1.39,0,0,0,29,0Z"/><path class="cls-1" d="M29.16,36.27a1.41,1.41,0,0,0,1.4-1.41V31.07a1.41,1.41,0,1,0-2.81,0v3.79A1.42,1.42,0,0,0,29.16,36.27Z"/><path class="cls-1" d="M47.23,18.06a1.42,1.42,0,0,0-1.41-1.4l-3.79,0a1.4,1.4,0,1,0,0,2.8h3.79A1.4,1.4,0,0,0,47.23,18.06Z"/><path class="cls-1" d="M42,30.9a1.4,1.4,0,0,0,0-2l-2.69-2.67a1.4,1.4,0,0,0-2,2L40,30.91A1.4,1.4,0,0,0,42,30.9Z"/><path class="cls-1" d="M41.87,5.26a1.4,1.4,0,0,0-2,0L37.21,8a1.41,1.41,0,1,0,2,2l2.66-2.68A1.41,1.41,0,0,0,41.87,5.26Z"/><path class="cls-1" d="M29,26.58a8.45,8.45,0,1,0-1.9-16.67A9.47,9.47,0,0,0,8.56,12.65c0,.19,0,.38,0,.57A7,7,0,0,0,6.8,13a6.8,6.8,0,0,0,0,13.6Z"/><polygon class="cls-1" points="14.79 29.67 22.1 29.67 18.45 36.59 24.25 36.59 14.21 48.44 16.55 41.27 9.87 41.27 14.79 29.67"/></g></g></g></svg>