<svg xmlns="http://www.w3.org/2000/svg" viewBox="0 0 47.23 40.19"><defs><style>.cls-1{fill:#fff;}</style></defs><g id="Layer_2" data-name="Layer 2"><g id="icons"><g id="sun_and_snow" data-name="sun and snow"><path class="cls-1" d="M29,0a1.41,1.41,0,0,0-1.4,1.41l0,3.78a1.41,1.41,0,0,0,2.81,0l0-3.78A1.39,1.39,0,0,0,29,0Z"/><path class="cls-1" d="M47.23,18.06a1.42,1.42,0,0,0-1.41-1.4l-3.79,0a1.4,1.4,0,1,0,0,2.8h3.79A1.4,1.4,0,0,0,47.23,18.06Z"/><path class="cls-1" d="M42,30.9a1.4,1.4,0,0,0,0-2l-2.69-2.67a1.4,1.4,0,0,0-2,2L40,30.91A1.4,1.4,0,0,0,42,30.9Z"/><path class="cls-1" d="M41.87,5.26a1.4,1.4,0,0,0-2,0L37.22,8a1.4,1.4,0,1,0,2,2l2.66-2.68A1.41,1.41,0,0,0,41.87,5.26Z"/><path class="cls-1" d="M29,26.58a8.45,8.45,0,1,0-1.9-16.67A9.47,9.47,0,0,0,8.56,12.65c0,.19,0,.38,0,.57A7,7,0,0,0,6.8,13a6.8,6.8,0,0,0,0,13.6Z"/><path class="cls-1" d="M16.11,33.84h-2.3l1.63-1.63a.92.92,0,0,0-1.3-1.3l-1.63,1.63v-2.3a.92.92,0,1,0-1.83,0v2.3L9.05,30.91a.92.92,0,0,0-1.3,0,.94.94,0,0,0,0,1.3l1.63,1.63H7.08a.92.92,0,1,0,0,1.83h2.3L7.75,37.3a.92.92,0,1,0,1.3,1.3L10.68,37v2.31a.92.92,0,1,0,1.83,0V37l1.63,1.63a.94.94,0,0,0,1.3,0,.92.92,0,0,0,0-1.3l-1.63-1.63h2.3a.92.92,0,1,0,0-1.83Z"/><path class="cls-1" d="M31.3,33.84H29l1.63-1.63a.92.92,0,0,0-1.3-1.3L27.7,32.54v-2.3a.92.92,0,1,0-1.83,0v2.3l-1.63-1.63a.92.92,0,0,0-1.3,1.3l1.63,1.63h-2.3a.92.92,0,1,0,0,1.83h2.3L22.94,37.3a.92.92,0,0,0,0,1.3.94.94,0,0,0,1.3,0L25.87,37v2.31a.92.92,0,1,0,1.83,0V37l1.63,1.63a.94.94,0,0,0,1.3,0,.92.92,0,0,0,0-1.3L29,35.67h2.3a.92.92,0,1,0,0-1.83Z"/></g></g></g></svg>