<svg xmlns="http://www.w3.org/2000/svg" viewBox="0 0 47.23 41.38"><defs><style>.cls-1{fill:#fff;}</style></defs><g id="Layer_2" data-name="Layer 2"><g id="icons"><g id="sunny_with_rain_clouds" data-name="sunny with rain clouds"><path class="cls-1" d="M29,0a1.41,1.41,0,0,0-1.4,1.41l0,3.78a1.4,1.4,0,1,0,2.8,0V1.4A1.4,1.4,0,0,0,29,0Z"/><path class="cls-1" d="M29.16,36.27a1.4,1.4,0,0,0,1.4-1.41V31.07a1.41,1.41,0,1,0-2.81,0v3.79A1.42,1.42,0,0,0,29.16,36.27Z"/><path class="cls-1" d="M47.23,18.06a1.4,1.4,0,0,0-1.41-1.39H42a1.4,1.4,0,1,0,0,2.8h3.79A1.4,1.4,0,0,0,47.23,18.06Z"/><path class="cls-1" d="M42,30.91a1.42,1.42,0,0,0,0-2l-2.69-2.66a1.4,1.4,0,0,0-2,2L40,30.91A1.41,1.41,0,0,0,42,30.91Z"/><path class="cls-1" d="M41.87,5.26a1.42,1.42,0,0,0-2,0L37.21,8a1.4,1.4,0,0,0,2,2l2.66-2.68A1.41,1.41,0,0,0,41.87,5.26Z"/><path class="cls-1" d="M29,26.58a8.45,8.45,0,1,0-1.9-16.67A9.47,9.47,0,0,0,8.55,12.65c0,.19,0,.38,0,.57A7,7,0,0,0,6.8,13a6.8,6.8,0,0,0,0,13.6Z"/><path class="cls-1" d="M13.25,35.51c-1.52,1.21-1.1,3.69.37,5s4,1.31,5-.37c1.17-2.05,3.06-8.94,3.06-8.94S15.1,34.05,13.25,35.51Z"/></g></g></g></svg>