<svg xmlns="http://www.w3.org/2000/svg" viewBox="0 0 25.1 45.36"><defs><style>.cls-1{fill:#fff;}</style></defs><g id="Layer_2" data-name="Layer 2"><g id="icons"><g id="temperature"><path class="cls-1" d="M12.55,16.92A2.57,2.57,0,0,0,10,19.5v9.16l-.38.28a4.93,4.93,0,1,0,5.91,0l-.38-.28V19.5A2.58,2.58,0,0,0,12.55,16.92Z"/><path class="cls-1" d="M12.55,45.36a12.55,12.55,0,0,1-8.24-22V8.24a8.24,8.24,0,0,1,16.48,0V23.35a12.55,12.55,0,0,1-8.24,22Zm0-41.85A4.74,4.74,0,0,0,7.82,8.24V25.06l-.69.53a9,9,0,0,0-3.62,7.22,9,9,0,0,0,18.09,0A9,9,0,0,0,18,25.59l-.7-.53V8.24A4.73,4.73,0,0,0,12.55,3.51Z"/><rect class="cls-1" x="20.15" y="9.41" width="1.43" height="2.49"/><rect class="cls-1" x="20.15" y="14.43" width="1.43" height="2.49"/><rect class="cls-1" x="20.15" y="19.46" width="1.43" height="2.49"/></g></g></g></svg>